{"scene":0,"asset":{"generator":"ImageToStl.com","version":"2.0"},"scenes":[{"name":"Scene","nodes":[0]}],"nodes":[{"name":"Node0","children":[1]},{"name":"Node1","mesh":0}],"materials":[{"name":"#6CC4DAFF","pbrMetallicRoughness":{"baseColorFactor":[0.42352942,0.76862746,0.85490197,1.0],"metallicFactor":0.0,"roughnessFactor":1.0},"doubleSided":true},{"name":"#68B8D0FF","pbrMetallicRoughness":{"baseColorFactor":[0.40784314,0.72156864,0.8156863,1.0],"metallicFactor":0.0,"roughnessFactor":1.0},"doubleSided":true},{"name":"#F0F0E0FF","pbrMetallicRoughness":{"baseColorFactor":[0.9411765,0.9411765,0.8784314,1.0],"metallicFactor":0.0,"roughnessFactor":1.0},"doubleSided":true},{"name":"#989898FF","pbrMetallicRoughness":{"baseColorFactor":[0.59607846,0.59607846,0.59607846,1.0],"metallicFactor":0.0,"roughnessFactor":1.0},"doubleSided":true}],"meshes":[{"name":"Mesh0","primitives":[{"indices":2,"material":1,"attributes":{"POSITION":0,"NORMAL":1}},{"indices":3,"material":2,"attributes":{"POSITION":0,"NORMAL":1}},{"indices":4,"material":3,"attributes":{"POSITION":0,"NORMAL":1}}]}],"accessors":[{"bufferView":0,"componentType":5126,"count":85817,"type":"VEC3","min":[-68.99999,-653.078,-4.0],"max":[134.20001,137.86,71.392105]},{"bufferView":1,"componentType":5126,"count":85817,"type":"VEC3"},{"bufferView":2,"componentType":5125,"count":86280,"type":"SCALAR"},{"bufferView":3,"componentType":5125,"count":408,"type":"SCALAR"},{"bufferView":4,"componentType":5125,"count":5382,"type":"SCALAR"}],"bufferViews":[{"target":34962,"buffer":0,"byteLength":1029804,"byteOffset":0},{"target":34962,"buffer":0,"byteLength":1029804,"byteOffset":1029804},{"target":34963,"buffer":0,"byteLength":345120,"byteOffset":2059608},{"target":34963,"buffer":0,"byteLength":1632,"byteOffset":2404728},{"target":34963,"buffer":0,"byteLength":21528,"byteOffset":2406360}],"buffers":[{"byteLength":2427888,"uri":"data:application/octet-stream;base64,"}]}