{"scene":0,"asset":{"generator":"ImageToStl.com","version":"2.0"},"scenes":[{"name":"Scene","nodes":[0]}],"nodes":[{"name":"Node0","children":[1]},{"name":"Node1","mesh":0}],"materials":[{"name":"#F6F6F3FF","pbrMetallicRoughness":{"baseColorFactor":[0.9647059,0.9647059,0.9529412,1.0],"metallicFactor":0.0,"roughnessFactor":1.0},"doubleSided":true},{"name":"#68B8D0FF","pbrMetallicRoughness":{"baseColorFactor":[0.40784314,0.72156864,0.8156863,1.0],"metallicFactor":0.0,"roughnessFactor":1.0},"doubleSided":true},{"name":"#E8E8E8FF","pbrMetallicRoughness":{"baseColorFactor":[0.9098039,0.9098039,0.9098039,1.0],"metallicFactor":0.0,"roughnessFactor":1.0},"doubleSided":true}],"meshes":[{"name":"Mesh0","primitives":[{"indices":2,"material":1,"attributes":{"POSITION":0,"NORMAL":1}},{"indices":3,"material":2,"attributes":{"POSITION":0,"NORMAL":1}}]}],"accessors":[{"bufferView":0,"componentType":5126,"count":6235,"type":"VEC3","min":[-26.775,-53.075,0.0],"max":[53.075,26.775,130.0]},{"bufferView":1,"componentType":5126,"count":6235,"type":"VEC3"},{"bufferView":2,"componentType":5123,"count":8394,"type":"SCALAR"},{"bufferView":3,"componentType":5123,"count":24,"type":"SCALAR"}],"bufferViews":[{"target":34962,"buffer":0,"byteLength":74820,"byteOffset":0},{"target":34962,"buffer":0,"byteLength":74820,"byteOffset":74820},{"target":34963,"buffer":0,"byteLength":16788,"byteOffset":149640},{"target":34963,"buffer":0,"byteLength":48,"byteOffset":166428}],"buffers":[{"byteLength":166476,"uri":"data:application/octet-stream;base64,"}]}